<svg xmlns="http://www.w3.org/2000/svg" viewBox="0 0 64 64" fill="none">
  <defs>
    <linearGradient id="brushstroke-a" x1="14" y1="16" x2="50" y2="44" gradientUnits="userSpaceOnUse">
      <stop stop-color="#FF8A5B" />
      <stop offset="1" stop-color="#E34D8C" />
    </linearGradient>
    <linearGradient id="brushstroke-b" x1="49" y1="16" x2="16" y2="50" gradientUnits="userSpaceOnUse">
      <stop stop-color="#19C7B5" />
      <stop offset="1" stop-color="#5C8BFF" />
    </linearGradient>
  </defs>
  <path
    d="M14.5 39.8C11.4 28.4 17.4 16.5 28.4 13.4C36 11.3 44.5 13.7 49.7 20C45.4 18.9 41.1 19.3 36.8 21.2C30.4 24 25.6 29.9 24.5 36.2C23.6 41.8 20.8 46 15.7 49C15.8 46 15.3 43 14.5 39.8Z"
    fill="url(#brushstroke-a)"
  />
  <path
    d="M49.7 24.2C52.7 35.6 46.6 47.5 35.6 50.6C28 52.7 19.4 50.2 14.2 43.9C18.5 45.1 22.9 44.7 27.2 42.8C33.6 40 38.4 34.1 39.5 27.8C40.4 22.2 43.2 18 48.2 15C48.2 18 48.8 21 49.7 24.2Z"
    fill="url(#brushstroke-b)"
  />
</svg>
