<svg xmlns="http://www.w3.org/2000/svg" viewBox="0 0 64 64" fill="none">
  <path
    d="M31.6 9.5C42.1 9.5 51.2 15.2 55.9 23.8C48 21.8 40.3 22.8 34.1 27.1C29.6 30.3 26.3 34.9 24.5 40.8C22.6 35.3 19.2 30.6 14.6 27.2C8.7 22.9 16 9.5 31.6 9.5Z"
    fill="#FF7A59"
  />
  <path
    d="M54.6 24.2C56.9 32.1 55.5 40.8 50.1 47.5C44.6 54.4 36.1 57.6 28.1 56.5C34.1 50.9 37.3 43.7 37.1 36.2C37 30.8 34.9 25.7 30.9 21C36.6 23.2 42.3 23.6 48.2 22.2C50.8 21.5 52.8 21.7 54.6 24.2Z"
    fill="#14B8A6"
  />
  <path
    d="M27.8 56.4C20 55.3 13 50.2 9.8 42.6C6.5 34.9 7.5 26 12.8 19.1C14.5 27.2 18.3 33.8 24.3 38.4C28.7 41.7 34 43.6 40.1 43.8C35.3 47.5 32.2 52 30.1 57.7C29.1 57.5 28.5 56.9 27.8 56.4Z"
    fill="#7C5CFF"
  />
</svg>
