<svg xmlns="http://www.w3.org/2000/svg" viewBox="0 0 64 64" fill="none">
  <defs>
    <linearGradient id="ribbon-a" x1="11" y1="18" x2="49" y2="41" gradientUnits="userSpaceOnUse">
      <stop stop-color="#22C55E" />
      <stop offset="1" stop-color="#1DB954" />
    </linearGradient>
    <linearGradient id="ribbon-b" x1="53" y1="17" x2="18" y2="50" gradientUnits="userSpaceOnUse">
      <stop stop-color="#6366F1" />
      <stop offset="1" stop-color="#00E2FF" />
    </linearGradient>
  </defs>
  <path
    d="M12 23.6C16.8 14.1 28 8.8 38.6 10.5C44.8 11.5 49.5 14.7 53 20.1C47.8 18.1 42.8 18.1 38.1 20C31.9 22.4 27.7 28.1 25.5 36.8C22.8 34.8 19.9 33.8 16.8 33.7C14.5 33.6 12.5 34 10.8 35C10.1 31.2 10.5 27.2 12 23.6Z"
    fill="url(#ribbon-a)"
  />
  <path
    d="M52 40.4C47.2 49.9 36 55.2 25.4 53.5C19.2 52.5 14.5 49.3 11 43.9C16.2 45.9 21.2 45.9 25.9 44C32.1 41.6 36.3 35.9 38.5 27.2C41.2 29.2 44.1 30.2 47.2 30.3C49.5 30.4 51.5 30 53.2 29C53.9 32.8 53.5 36.8 52 40.4Z"
    fill="url(#ribbon-b)"
  />
</svg>
